<svg width="429" height="340" viewBox="0 0 429 340" fill="none" xmlns="http://www.w3.org/2000/svg">
<g clip-path="url(#clip0_1_3)">
<g opacity="0.24">
<path opacity="0.24" d="M213.1 274.1C250.324 274.1 280.5 268.145 280.5 260.8C280.5 253.455 250.324 247.5 213.1 247.5C175.876 247.5 145.7 253.455 145.7 260.8C145.7 268.145 175.876 274.1 213.1 274.1Z" fill="#C9A8F4"/>
<path opacity="0.24" d="M333.6 279.1C333.6 279.1 313 279.5 312.4 284.5C311.8 289.5 337.6 302.5 344.3 303.3C351 304.1 347.7 293.6 357.2 291.2C366.6 288.8 382.4 275.9 333.6 279.1Z" fill="#C9A8F4"/>
<path opacity="0.24" d="M163.6 311.9C163.6 311.9 151.9 316.7 154.8 322.3C157.6 327.9 165.7 323.9 180 333.2C194.3 342.5 211.3 342.9 209.7 329.4C208.1 315.8 192.7 308.3 163.6 311.9Z" fill="#C9A8F4"/>
<path opacity="0.24" d="M57.4 275.7C57.4 275.7 62.8 291.2 81 291.2C99.2 291.2 117.7 290 129.2 296.8C140.7 303.7 154.4 300.4 147.2 278.6C147.2 278.6 132.5 277.7 115.7 275.8C96.9 273.7 60.6 261.8 57.4 275.7Z" fill="#C9A8F4"/>
<path opacity="0.24" d="M181 20.7C141.7 1.5 32.1 -13.6 32.3 46.1C32.6 142.4 90.6 233.1 198.5 241C306.4 248.9 402.6 185.3 400.3 104.5C398 23.7 358.1 16.5 306.2 22.9C254.3 29.3 227.4 43.3 181 20.7Z" fill="#C9A8F4"/>
<path opacity="0.24" d="M236.1 2.39999C226.5 0.699992 168.2 -5.10001 184.8 11C201.4 27.1 233.5 25.8 251.3 21.2C269.1 16.5 249.3 4.69999 236.1 2.39999Z" fill="#C9A8F4"/>
</g>
<path d="M43.5 91.6C43.5 91.6 26.7 85.8 7 100.7C7 100.7 20 109.3 28.5 117.8C37 126.3 52.6 117.3 49.4 109.9C49.4 109.7 58.7 100.9 43.5 91.6Z" fill="url(#paint0_linear_1_3)"/>
<path d="M50.4 114.7C50.4 114.7 35.3 106.8 19.1 103.2C19.1 103.2 35.6 104.8 49.2 112.3L50.4 114.7Z" fill="#6442CE"/>
<path d="M48.7 153.8C48.7 153.8 31.6 158.5 23.8 182C23.8 182 39.4 181.7 51.2 183.9C63 186.1 70.8 169.9 63.9 165.5C63.9 165.4 66.5 152.8 48.7 153.8Z" fill="url(#paint1_linear_1_3)"/>
<path d="M67.5 168.9C67.5 168.9 50.6 171 35.2 177.2C35.2 177.2 49.8 169.2 65.1 167.6L67.5 168.9Z" fill="#6442CE"/>
<path d="M64.5 77.2C64.5 77.2 55.6 62.9 32.2 62.1C32.2 62.1 36.6 76.2 37.8 87.5C39 98.8 55.8 101.5 57.9 94.1C58 94.1 70.2 93.1 64.5 77.2Z" fill="url(#paint2_linear_1_3)"/>
<path d="M49.2 77.2C49.2 77.2 69.4 97.2 82.3 137.1L77.7 143.6C77.6 143.5 77.4 119.7 49.2 77.2Z" fill="#6442CE"/>
<path d="M37.3 121.1C37.3 121.1 21.3 113.3 0 125.7C0 125.7 11.9 135.8 19.3 145.2C26.7 154.6 43.2 147.6 41 139.8C41 139.8 51.3 132.1 37.3 121.1Z" fill="url(#paint3_linear_1_3)"/>
<path d="M25 130.2C25 130.2 52.7 136.4 84.9 163.3L81 168.9C81 168.8 71.6 151.2 25 130.2Z" fill="#6442CE"/>
<path d="M74.7 179.5C74.8 180.2 74.2 180.9 73.4 180.7C68.2 179.6 51.3 174.8 40.7 159.7C33.1 148.8 23.6 145.4 17.3 144.5C16.1 144.3 16.1 142.7 17.2 142.4C32.1 139.1 67.2 136.1 74.7 179.5Z" fill="url(#paint4_linear_1_3)"/>
<path d="M83.1 162.2C83.1 162.2 73 115.2 40.6 84.4C39.6 83.4 37.9 84.5 38.4 85.8C40 90.2 41.7 97.1 42.1 106.9C42.8 125.3 45.6 150.6 79.7 168.3L83.1 162.2Z" fill="url(#paint5_linear_1_3)"/>
<path d="M83.2 124.2C83.1 119.2 81.6 74.1 60.6 46.8C59.4 45.2 56.8 46.6 57.5 48.5C59 53 60.6 58.9 61.3 65.8C63 81.7 51.4 102.8 76.9 131.7C77.7 132.6 79.3 132.4 79.8 131.3L83 125C83.1 124.8 83.2 124.5 83.2 124.2Z" fill="url(#paint6_linear_1_3)"/>
<path d="M83 184.7C83 184.7 62.9 189.1 41.4 180.2C39.8 179.5 38.4 181.6 39.7 182.9C42.7 185.8 45.8 189 48 192.1C54.4 200.9 71.1 207.9 87.3 190.4L83 184.7Z" fill="url(#paint7_linear_1_3)"/>
<path d="M85.1 115.3C85.1 115.3 73.4 106.4 70.2 85.2C66.9 64.1 63.1 56 63.1 56" stroke="#EA8BEF" stroke-width="1.0087" stroke-miterlimit="10" stroke-linecap="round"/>
<path d="M43.9 91.7C43.9 91.7 49.1 104.4 55.2 123.8C61.3 143.2 74.6 154.9 85.1 158.9" stroke="#EA8BEF" stroke-width="1.0087" stroke-miterlimit="10" stroke-linecap="round"/>
<path d="M83.1 190.3C83.1 190.3 60.5 198.4 44 182.8" stroke="#EA8BEF" stroke-width="1.0087" stroke-miterlimit="10" stroke-linecap="round"/>
<path d="M23.8 143.9C23.8 143.9 37.9 140.7 49.2 155C60.5 169.3 68.4 181.2 82.3 182.8" stroke="#EA8BEF" stroke-width="1.0087" stroke-miterlimit="10" stroke-linecap="round"/>
<path d="M385.3 91.6C385.3 91.6 402.1 85.8 421.8 100.7C421.8 100.7 408.8 109.3 400.3 117.8C391.8 126.3 376.2 117.3 379.4 109.9C379.4 109.7 370 100.9 385.3 91.6Z" fill="url(#paint8_linear_1_3)"/>
<path d="M378.3 114.7C378.3 114.7 393.4 106.8 409.6 103.2C409.6 103.2 393.1 104.8 379.5 112.3L378.3 114.7Z" fill="#6442CE"/>
<path d="M380 153.8C380 153.8 397.1 158.5 404.9 182C404.9 182 389.3 181.7 377.5 183.9C365.7 186 357.9 169.9 364.8 165.5C364.9 165.4 362.2 152.8 380 153.8Z" fill="url(#paint9_linear_1_3)"/>
<path d="M361.2 168.9C361.2 168.9 378.1 171 393.5 177.2C393.5 177.2 378.9 169.2 363.6 167.6L361.2 168.9Z" fill="#6442CE"/>
<path d="M364.2 77.2C364.2 77.2 373.1 62.9 396.5 62.1C396.5 62.1 392.1 76.2 390.9 87.5C389.7 98.8 372.9 101.5 370.8 94.1C370.8 94.1 358.6 93.1 364.2 77.2Z" fill="url(#paint10_linear_1_3)"/>
<path d="M379.6 77.2C379.6 77.2 359.4 97.2 346.5 137.1L351.1 143.6C351.1 143.5 351.3 119.7 379.6 77.2Z" fill="#6442CE"/>
<path d="M391.4 121.1C391.4 121.1 407.4 113.3 428.7 125.7C428.7 125.7 416.8 135.8 409.4 145.2C402 154.6 385.5 147.6 387.7 139.8C387.8 139.8 377.4 132.1 391.4 121.1Z" fill="url(#paint11_linear_1_3)"/>
<path d="M403.7 130.2C403.7 130.2 376 136.4 343.8 163.3L347.7 168.9C347.7 168.8 357.1 151.2 403.7 130.2Z" fill="#6442CE"/>
<path d="M354 179.5C353.9 180.2 354.5 180.9 355.3 180.7C360.5 179.6 377.4 174.8 388 159.7C395.6 148.8 405.1 145.4 411.4 144.5C412.6 144.3 412.6 142.7 411.5 142.4C396.6 139.1 361.5 136.1 354 179.5Z" fill="url(#paint12_linear_1_3)"/>
<path d="M345.7 162.2C345.7 162.2 355.8 115.2 388.2 84.4C389.2 83.4 390.9 84.5 390.4 85.8C388.8 90.2 387.1 97.1 386.7 106.9C386 125.3 383.2 150.6 349.1 168.3L345.7 162.2Z" fill="url(#paint13_linear_1_3)"/>
<path d="M345.6 124.2C345.7 119.2 347.2 74.1 368.2 46.8C369.4 45.2 372 46.6 371.3 48.5C369.8 53 368.2 58.9 367.5 65.8C365.8 81.7 377.4 102.8 351.9 131.7C351.1 132.6 349.5 132.4 349 131.3L345.8 125C345.6 124.8 345.6 124.5 345.6 124.2Z" fill="url(#paint14_linear_1_3)"/>
<path d="M345.8 184.7C345.8 184.7 365.9 189.1 387.4 180.2C389 179.5 390.4 181.6 389.1 182.9C386.1 185.8 383 189 380.8 192.1C374.4 200.9 357.7 207.9 341.5 190.4L345.8 184.7Z" fill="url(#paint15_linear_1_3)"/>
<path d="M343.6 115.3C343.6 115.3 355.3 106.4 358.5 85.2C361.7 64 365.6 55.9 365.6 55.9" stroke="#EA8BEF" stroke-width="1.0087" stroke-miterlimit="10" stroke-linecap="round"/>
<path d="M384.8 91.7C384.8 91.7 379.6 104.4 373.5 123.8C367.4 143.2 354.1 154.9 343.6 158.9" stroke="#EA8BEF" stroke-width="1.0087" stroke-miterlimit="10" stroke-linecap="round"/>
<path d="M345.7 190.3C345.7 190.3 368.3 198.4 384.8 182.8" stroke="#EA8BEF" stroke-width="1.0087" stroke-miterlimit="10" stroke-linecap="round"/>
<path d="M405 143.9C405 143.9 390.9 140.7 379.6 155C368.3 169.3 360.4 181.2 346.5 182.8" stroke="#EA8BEF" stroke-width="1.0087" stroke-miterlimit="10" stroke-linecap="round"/>
<path d="M345.7 227.1H82.7C80.1 227.1 78 225 78 222.4V61.1C78 52.9 84.6 46.3 92.8 46.3H334.5C342.7 46.3 349.3 52.9 349.3 61.1V223.5C349.3 225.5 347.7 227.1 345.7 227.1Z" fill="#DBDCDD"/>
<path d="M349.3 202.6H78.1V60.1C78.1 52.5 84.2 46.4 91.8 46.4H335.5C343.1 46.4 349.2 52.5 349.2 60.1V202.6H349.3Z" fill="url(#paint16_linear_1_3)"/>
<path d="M336.4 63.2V185.6C336.4 188.5 334.1 190.8 331.2 190.8H95.2C92.3 190.8 90 188.5 90 185.6V63.2C90 60.3 92.3 58 95.2 58H331.3C334.1 58.1 336.4 60.4 336.4 63.2Z" fill="white"/>
<path d="M174 124.693C172.895 124.693 172 123.798 172 122.693V120.432C172 120.026 172.124 119.628 172.356 119.294L185.797 99.8829C186.171 99.3434 186.785 99.0215 187.441 99.0215H191.569C192.673 99.0215 193.569 99.917 193.569 101.022V117.338C193.569 118.407 194.436 119.275 195.505 119.275V119.275C196.575 119.275 197.442 120.142 197.442 121.211V122.756C197.442 123.826 196.575 124.693 195.505 124.693V124.693C194.436 124.693 193.569 125.56 193.569 126.63V129C193.569 130.105 192.673 131 191.569 131H189.406C188.302 131 187.406 130.105 187.406 129V126.693C187.406 125.589 186.511 124.693 185.406 124.693H174ZM187.802 112.312C187.802 110.331 185.232 109.555 184.136 111.206L180.841 116.168C179.958 117.498 180.912 119.275 182.507 119.275H185.802C186.907 119.275 187.802 118.379 187.802 117.275V112.312Z" fill="#FF685F"/>
<path d="M201.365 114.389C201.365 109.266 202.275 105.254 204.095 102.353C205.943 99.4509 208.995 98 213.25 98C217.505 98 220.542 99.4509 222.362 102.353C224.211 105.254 225.135 109.266 225.135 114.389C225.135 119.541 224.211 123.583 222.362 126.514C220.542 129.445 217.505 130.911 213.25 130.911C208.995 130.911 205.943 129.445 204.095 126.514C202.275 123.583 201.365 119.541 201.365 114.389ZM219.06 114.389C219.06 112.198 218.914 110.362 218.62 108.882C218.356 107.371 217.799 106.143 216.948 105.195C216.126 104.248 214.893 103.774 213.25 103.774C211.607 103.774 210.36 104.248 209.509 105.195C208.687 106.143 208.129 107.371 207.836 108.882C207.572 110.362 207.44 112.198 207.44 114.389C207.44 116.639 207.572 118.534 207.836 120.074C208.1 121.584 208.658 122.813 209.509 123.76C210.36 124.678 211.607 125.137 213.25 125.137C214.893 125.137 216.141 124.678 216.992 123.76C217.843 122.813 218.4 121.584 218.664 120.074C218.928 118.534 219.06 116.639 219.06 114.389Z" fill="#FF685F"/>
<path d="M231.558 124.693C230.453 124.693 229.558 123.798 229.558 122.693V120.432C229.558 120.026 229.682 119.628 229.914 119.294L243.355 99.8829C243.729 99.3434 244.343 99.0215 244.999 99.0215H249.126C250.231 99.0215 251.126 99.917 251.126 101.022V117.338C251.126 118.407 251.994 119.275 253.063 119.275V119.275C254.133 119.275 255 120.142 255 121.211V122.756C255 123.826 254.133 124.693 253.063 124.693V124.693C251.994 124.693 251.126 125.56 251.126 126.63V129C251.126 130.105 250.231 131 249.126 131H246.964C245.859 131 244.964 130.105 244.964 129V126.693C244.964 125.589 244.069 124.693 242.964 124.693H231.558ZM245.36 112.312C245.36 110.331 242.79 109.555 241.694 111.206L238.399 116.168C237.516 117.498 238.47 119.275 240.065 119.275H243.36C244.465 119.275 245.36 118.379 245.36 117.275V112.312Z" fill="#FF685F"/>
<path d="M225.368 166.848H207.751C205.571 166.848 203.826 165.102 203.826 162.921V162.834C203.826 160.652 205.571 158.907 207.751 158.907H225.368C225.978 158.907 226.414 159.343 226.414 159.954C226.414 160.565 225.978 161.001 225.368 161.001H207.751C206.704 161.001 205.832 161.874 205.832 162.921V163.008C205.832 164.055 206.704 164.928 207.751 164.928H225.368C225.978 164.928 226.414 165.364 226.414 165.975C226.414 166.324 225.978 166.848 225.368 166.848Z" fill="#6D42FF"/>
<path d="M205.919 160.914C205.571 160.914 205.309 160.74 205.222 160.391L199.814 142.59H229.903L226.502 160.303C226.414 160.74 225.978 161.001 225.63 160.914C225.194 160.827 224.932 160.391 225.019 160.042L228.072 144.161H201.908L206.704 159.954C206.792 160.391 206.617 160.827 206.181 160.914C206.094 160.914 206.007 160.914 205.919 160.914Z" fill="#6D42FF"/>
<path d="M200.861 144.074C200.512 144.074 200.25 143.899 200.163 143.55L198.419 138.751H194.494C194.058 138.751 193.71 138.402 193.71 137.966C193.71 137.529 194.058 137.18 194.494 137.18H199.466L201.559 143.027C201.733 143.463 201.471 143.899 201.123 143.986C201.035 144.074 200.948 144.074 200.861 144.074Z" fill="#6D42FF"/>
<path d="M194.494 139.274H190.308C189.61 139.274 189 138.664 189 137.966C189 137.268 189.61 136.657 190.308 136.657H194.494C195.192 136.657 195.803 137.268 195.803 137.966C195.803 138.664 195.192 139.274 194.494 139.274Z" fill="#6D42FF"/>
<path d="M210.803 171.036C210.803 172.956 209.233 174.613 207.228 174.613C205.309 174.613 203.652 173.043 203.652 171.036C203.652 169.116 205.222 167.458 207.228 167.458C209.233 167.458 210.803 169.029 210.803 171.036Z" fill="#B7A4F9"/>
<path d="M227.461 171.036C227.461 172.956 225.891 174.613 223.885 174.613C221.967 174.613 220.31 173.043 220.31 171.036C220.31 169.116 221.879 167.458 223.885 167.458C225.891 167.458 227.461 169.029 227.461 171.036Z" fill="#B7A4F9"/>
<path d="M208.885 171.036C208.885 171.908 208.187 172.694 207.228 172.694C206.355 172.694 205.571 171.996 205.571 171.036C205.571 170.076 206.268 169.378 207.228 169.378C208.187 169.378 208.885 170.076 208.885 171.036Z" fill="white"/>
<path d="M224.06 172.694C224.975 172.694 225.717 171.951 225.717 171.036C225.717 170.12 224.975 169.378 224.06 169.378C223.145 169.378 222.403 170.12 222.403 171.036C222.403 171.951 223.145 172.694 224.06 172.694Z" fill="white"/>
<path d="M209.495 160.478C209.146 160.478 208.797 160.216 208.71 159.867L206.007 144.074C205.919 143.637 206.181 143.288 206.617 143.201C207.053 143.114 207.402 143.376 207.489 143.812L210.193 159.605C210.28 160.042 210.018 160.391 209.582 160.478C209.582 160.478 209.582 160.478 209.495 160.478Z" fill="#6D42FF"/>
<path d="M213.333 160.129C212.896 160.129 212.548 159.78 212.548 159.431L211.501 143.812C211.501 143.376 211.763 143.027 212.199 143.027C212.635 143.027 212.984 143.288 212.984 143.725L214.03 159.343C214.117 159.78 213.856 160.129 213.333 160.129C213.333 160.129 213.42 160.129 213.333 160.129Z" fill="#6D42FF"/>
<path d="M221.443 160.478H221.356C220.92 160.391 220.658 160.042 220.746 159.605L223.275 143.812C223.362 143.376 223.711 143.114 224.147 143.201C224.583 143.288 224.845 143.637 224.757 144.074L222.228 159.867C222.141 160.216 221.792 160.478 221.443 160.478Z" fill="#6D42FF"/>
<path d="M217.344 160.129C217.257 160.129 217.257 160.129 217.344 160.129C216.908 160.129 216.559 159.78 216.559 159.343L217.344 143.725C217.344 143.288 217.693 142.939 218.129 143.026C218.565 143.026 218.914 143.376 218.827 143.812L218.042 159.431C218.042 159.867 217.693 160.129 217.344 160.129Z" fill="#6D42FF"/>
<path d="M227.287 149.571H202.518C202.082 149.571 201.733 149.222 201.733 148.785C201.733 148.349 202.082 148 202.518 148H227.199C227.635 148 227.984 148.349 227.984 148.785C227.984 149.222 227.635 149.571 227.287 149.571Z" fill="#6D42FF"/>
<path d="M226.414 154.981H204.611C204.175 154.981 203.826 154.632 203.826 154.195C203.826 153.759 204.175 153.41 204.611 153.41H226.414C226.851 153.41 227.199 153.759 227.199 154.195C227.199 154.632 226.851 154.981 226.414 154.981Z" fill="#6D42FF"/>
<path d="M213.8 219.9C216.893 219.9 219.4 217.393 219.4 214.3C219.4 211.207 216.893 208.7 213.8 208.7C210.707 208.7 208.2 211.207 208.2 214.3C208.2 217.393 210.707 219.9 213.8 219.9Z" fill="url(#paint17_linear_1_3)"/>
<path d="M244.9 227.1H181.6V252.9H244.9V227.1Z" fill="url(#paint18_linear_1_3)"/>
<path d="M264.2 263.5H163.5C163.5 256.7 169 251.3 175.7 251.3H251.8C258.7 251.3 264.2 256.8 264.2 263.5Z" fill="#DBDCDD"/>
<path d="M336.4 63.2V69H90V63.2C90 60.3 92.3 58 95.2 58H331.3C334.1 58.1 336.4 60.4 336.4 63.2Z" fill="#6545BA"/>
<path opacity="0.61" d="M252 181.3H174.7C173.1 181.3 171.8 180 171.8 178.4C171.8 176.8 173.1 175.5 174.7 175.5H252C253.6 175.5 254.9 176.8 254.9 178.4C254.9 180 253.6 181.3 252 181.3Z" fill="#E3DCE5"/>
<path d="M313.3 131.3C313.2 131.3 313 131.3 312.9 131.3C310.8 131.3 309.2 128.7 309.2 125.6C309.2 122.5 310.9 119.9 312.9 119.9C313 119.9 313.2 119.9 313.3 119.9C311.4 120.2 310 122.6 310 125.6C310 128.6 311.5 131 313.3 131.3Z" fill="#9B233F"/>
<path d="M345.5 139C345.5 139 354.3 139.4 358.1 146.1C361.9 152.9 366.9 168.4 365 171.4C363.1 174.4 353.4 179.4 353.4 179.4L345.5 139Z" fill="url(#paint19_linear_1_3)"/>
<path d="M326.5 121.1C326.5 125.6 326.8 134.6 328.7 136.4L328.8 136.5C330.6 137.9 332.7 136.4 333.1 136.1C333.2 136.1 333.2 136 333.2 136C333.2 136 335 140.5 334.5 141.8L344.4 140C344.4 140 341.8 136 340 133.4C338.6 131.4 334.7 123.5 332.9 119.7C332.8 119.5 332.7 119.2 332.6 119C332.2 118.2 332 117.7 332 117.7L329.4 118.1L326.6 118.5C326.6 118.5 326.5 119.5 326.5 121.1Z" fill="url(#paint20_linear_1_3)"/>
<path d="M328.8 136.4L328.9 136.5C330.7 137.9 332.8 136.4 333.2 136.1C333.6 134.5 333.4 133 333.4 133C331.9 136.1 330 136.5 328.8 136.4Z" fill="#ED4C76"/>
<path d="M326.5 121.1C328.3 121.8 330.7 121.8 330.7 121.8L333 119.6L333.5 119.2L332.7 119L329.4 118L326.6 118.4C326.6 118.5 326.5 119.5 326.5 121.1Z" fill="url(#paint21_linear_1_3)"/>
<path d="M326.6 222.1C326.9 226.6 333.6 255.3 333.2 271.6H341.2C341.2 271.6 340.9 243.2 339.4 232.9C337.9 223 339.1 220.7 341 216.3C341.1 216.1 341.1 216 341.2 215.8C341.5 215.2 341.7 214.6 342 214C343.9 209.6 345.9 205.1 345.9 205.1C345.9 205.1 345.9 205.4 345.9 206C345.7 209.9 345.2 225 345.9 228.6C346.8 232.8 354.2 265.9 355 274H362.7C362.7 274 361.5 248.4 359.2 236.4C356.9 224.3 359.5 215.1 361.9 204.3C364.4 193.5 363.4 181.7 363.4 181.7L332 185.6C332 185.6 326.3 217.5 326.6 222.1Z" fill="url(#paint22_linear_1_3)"/>
<path d="M345.9 206C345.7 209.9 345.2 225 345.9 228.6C346.8 232.8 354.2 265.9 355 274H355.2L356.6 273.4C356.6 273.4 356.3 251.7 353.7 246C351.1 240.3 347.9 231.3 348.6 225.2C349.4 219.1 353.3 200.4 348.6 192.4C348.6 192.4 348.4 198.9 345.9 206Z" fill="url(#paint23_linear_1_3)"/>
<path d="M341 216.2C341.1 216 341.1 215.9 341.2 215.7C341.5 215.1 341.7 214.5 342 213.9C341.6 214.6 341.3 215.3 341 216.2Z" fill="url(#paint24_linear_1_3)"/>
<path d="M333.3 275.2C333.3 275.2 332.3 277.7 329.1 278.7C326 279.7 321.6 281.2 321.4 282.3C321.3 283.5 338.1 282.9 339.3 282.8C340.5 282.7 341.2 278.6 339.8 274.2L333.3 275.2Z" fill="#6149B7"/>
<path d="M355.6 274.9C355.6 274.9 356.4 276.5 352.7 277.8C349.1 279.1 346.2 282 347.1 282.6C348 283.2 360.6 283.4 362 283.1C363.4 282.8 362.3 275.2 361.6 274.3L355.6 274.9Z" fill="#6149B7"/>
<path d="M313.52 136.425H315.12V130.325H313.52V136.425Z" fill="#BA2744"/>
<path d="M309.7 125.6C309.7 128.8 311.6 131.4 314 131.4C316.4 131.4 318.3 128.8 318.3 125.6C318.3 122.4 316.4 119.8 314 119.8C311.6 119.8 309.7 122.4 309.7 125.6Z" fill="#BA2744"/>
<path d="M310.5 125.6C310.5 128.2 312.1 130.4 314 130.4C315.9 130.4 317.5 128.3 317.5 125.6C317.5 123 315.9 120.8 314 120.8C312 120.9 310.5 123 310.5 125.6Z" fill="url(#paint25_linear_1_3)"/>
<path d="M311.4 136.9C311.4 137.4 312.8 140.8 313 141.6C313.1 142.4 313.3 152.2 313.3 152.2L316.5 151.7L318.4 151.4C318.4 151.4 317.1 140.5 317.1 139.5C317.1 138.5 318.1 137.6 317.6 135.7C317.6 135.6 317.6 135.5 317.5 135.5C317 133.8 316 132.8 316 131.7C316 130.5 315.5 130.5 315.2 131.2C314.9 131.8 315.3 135.4 315.3 135.4C315.3 135.4 313.9 135 313.6 134.4C313.3 133.8 313.5 131.5 313.5 131.5C313.5 131.5 312.6 131.4 312.5 131.9C312.3 132.4 311.4 136.4 311.4 136.9Z" fill="url(#paint26_linear_1_3)"/>
<path d="M316.3 151.8L318.2 151.5C318.2 151.5 316.9 140.6 316.9 139.6C316.9 138.6 317.9 137.7 317.4 135.8C317.4 135.7 317.4 135.6 317.3 135.6C317.3 136.4 317.1 137.5 316.5 138.2C315.3 139.5 316 140 316.5 143.8C317 147 316.5 150.8 316.3 151.8Z" fill="#ED4C76"/>
<path d="M312.8 149.7C312.8 149.7 313.7 163.3 314.7 166.6C315.2 168 315.3 169.1 315.6 170C316 171.1 316.7 171.6 318.8 171.7C322.6 171.8 327.8 158.2 327.8 158.2C327.8 158.2 334.9 169.4 332 185.7L339.4 186.7L363.5 190C363.5 190 363.6 167.2 359.7 154.2C355.8 141.2 350.1 140.3 347.4 139.4C344.7 138.5 332.6 139.9 326.5 144.1C323.8 146 321.7 149.5 320.5 151.9C319.8 153.3 319.4 154.3 319.4 154.3L318.9 151.5L318.4 148.8L312.8 149.7Z" fill="url(#paint27_linear_1_3)"/>
<path d="M317.5 159.4L320.6 151.8C319.9 153.2 319.5 154.2 319.5 154.2L319 151.4L317.5 159.4Z" fill="url(#paint28_linear_1_3)"/>
<path d="M315.7 169.9C316.1 171 316.8 171.5 318.9 171.6C322.7 171.7 327.9 158.1 327.9 158.1C327.9 158.1 335 169.3 332.1 185.6L339.5 186.6C337.8 182.3 338.3 174 336.5 167.3C334.2 158.6 326.6 152.2 326.6 152.2C327.4 155.3 326.1 158 323.9 160.9C321.7 163.8 322.5 166.5 320.7 169.2C319.4 171 317.1 170.5 315.7 169.9Z" fill="url(#paint29_linear_1_3)"/>
<path d="M342 271.3H331.8L332.3 275.6H341.2L342 271.3Z" fill="#BA72ED"/>
<path d="M363.9 271.3H353.7L354.2 275.6H363.2L363.9 271.3Z" fill="#BA72ED"/>
<path d="M332.4 127.8C332.4 127.8 333.3 136.1 337.9 136C342.4 135.9 344.3 135.6 343.2 132C342.2 128.4 345.3 123 344.2 119C343.2 115 339.9 116.5 339.9 116.5C339.9 116.5 339.8 113 337.3 112.5C334.8 112 332.8 112.2 328.6 113.8C324.4 115.4 321.8 115.4 321.8 115.4C321.8 115.4 323.4 116.2 324.7 116.2C324.7 116.2 322.4 116.6 320.9 116.2C320.9 116.2 323.5 120.2 330 120.4C330 120.4 329.4 124 331.4 126.6C331.4 126.6 331.1 122.8 332.6 123.1C334.1 123.3 335.4 128.4 332.4 127.8Z" fill="#BA2744"/>
<path d="M114.4 173.3H118.8L116.6 166.5C116.6 166.5 113.5 168.3 114.4 173.3Z" fill="url(#paint30_linear_1_3)"/>
<path d="M74.5 155C74.5 155 71.2 162.2 76.8 165.9C82.4 169.6 100.1 176.8 115 176V167.7C115 167.7 107.9 168.7 97.3 164.8C86.7 160.8 74.5 155 74.5 155Z" fill="#EF882B"/>
<path d="M111.1 139.9C111 139.9 111 140 110.9 140C109.5 141 107 137.9 106.6 137.3C106.5 137.2 106.5 137.2 106.5 137.2C106.5 137.2 104 140.8 103.3 143.6C102.6 146.4 93.7 140.2 93.7 140.2L106.2 120.9L116.5 119.8L118.7 121.6C118.8 121.6 118.9 134.3 111.1 139.9Z" fill="url(#paint31_linear_1_3)"/>
<path d="M115.6 122.1C115.6 122.1 118.1 124.4 118.5 125.4C118.5 125.4 117 120.1 116 119.4C115.1 118.7 115.6 122.1 115.6 122.1Z" fill="url(#paint32_linear_1_3)"/>
<path d="M111.1 139.9C111 139.9 111 140 110.9 140C109.5 141 107 137.9 106.6 137.3L106.3 132H108.4C108.4 132 108.1 137.7 111.1 139.9Z" fill="#ED4C76"/>
<path d="M104.9 159.9C104.9 159.9 101 181.7 108.1 204.5L93 195.1L102.9 154.2L104.9 159.9Z" fill="#FCA128"/>
<path d="M130.1 267.8C129.4 268.2 128.6 268.4 127.7 268.5C126.2 268.6 124.7 268.2 123.8 267.9C118.5 256 110.8 230.1 108.9 228.2C106.8 226.1 95.3 211.9 95.3 211.9L96.5 202.8L98.6 187.4C98.6 187.4 118.5 219 120 222.1C121.2 224.8 127.9 257.9 130.1 267.8Z" fill="url(#paint33_linear_1_3)"/>
<path d="M148.1 278.8C146.7 279.4 126.2 279.2 125 278.1C124 277.2 124.7 272.5 124.9 271.1C127.9 271.6 130.1 271.3 131.3 271C134.4 272.5 149.4 278.2 148.1 278.8Z" fill="#6149B7"/>
<path d="M131.3 270.9C130.1 271.2 127.9 271.5 124.9 271C124.9 270.7 125 270.5 125 270.5C124.6 269.7 124.2 268.8 123.7 267.9C125.2 268.3 128.2 269 130 267.8C130.4 269.4 130.6 270.4 130.7 270.6C130.9 270.6 131.1 270.7 131.3 270.9Z" fill="url(#paint34_linear_1_3)"/>
<path d="M127.7 268.5C126.2 268.6 124.7 268.2 123.8 267.9C118.5 256 110.8 230.1 108.9 228.2C106.8 226.1 95.3 211.9 95.3 211.9L96.5 202.8C96.6 203 102.1 215 108 220C114 225 114.3 226.1 115.5 234.1C116.7 241.8 123.5 262.9 127.7 268.5Z" fill="url(#paint35_linear_1_3)"/>
<path d="M74.6 278.8C62.8 278.8 58.6 279.4 58.4 276.5C58.2 274.7 59.5 271.4 60.5 269.1C63 270.1 65.2 270.6 65.2 270.6L65.9 270.3C65.8 270.5 65.7 270.6 65.7 270.6C65.7 270.6 79.1 275.9 81 276.5C82.9 277 86.4 278.8 74.6 278.8Z" fill="#6149B7"/>
<path d="M90.2 229.4C89.6 232.6 72.3 260 67.1 268.2C65.9 268.1 64.9 267.9 64 267.6C63 267.3 62.2 266.9 61.6 266.5C61.7 266.1 70.3 240.3 77.8 229.7C77.8 229.7 72.3 212.5 71.7 206.7C71.7 206.5 71.7 206.3 71.7 206.1C72.6 201.8 90.2 211.4 90.2 211.4C90.2 211.4 90.9 225.6 90.2 229.4Z" fill="url(#paint36_linear_1_3)"/>
<path d="M67.1 268.2C66.5 269.1 66.1 269.8 65.8 270.2L65.1 270.5C65.1 270.5 62.9 270 60.4 269C61 267.5 61.5 266.5 61.5 266.5C62.8 267.2 64.7 268 67.1 268.2Z" fill="url(#paint37_linear_1_3)"/>
<path d="M80.1 232C76.6 235 75.5 243.1 71.9 249.4C68.3 255.7 64.9 260.1 64 267.6C63 267.3 62.2 266.9 61.6 266.5C61.7 266.1 70.3 240.3 77.8 229.7C77.8 229.7 72.3 212.5 71.7 206.7C71.7 206.5 71.7 206.3 71.7 206.1L78.8 206.9C78.8 206.9 79 217.5 80.4 222.6C81.6 227.1 84.2 228.5 80.1 232Z" fill="url(#paint38_linear_1_3)"/>
<path d="M132.541 135.62L131.353 135.447L130.247 143.067L131.434 143.24L132.541 135.62Z" fill="#9B233F"/>
<path d="M132.237 135.53L131.049 135.357L129.943 142.977L131.13 143.149L132.237 135.53Z" fill="#BA2744"/>
<path d="M136.8 130.1C135.9 134.4 133.7 137.5 131.8 137.1C131.7 137.1 131.5 137 131.4 137C129.8 136.2 129.2 132.6 130 128.7C130.8 124.7 132.8 121.7 134.6 121.6C134.7 121.6 134.9 121.6 135 121.6C136.8 122 137.6 125.8 136.8 130.1Z" fill="#9B233F"/>
<path d="M135.9 129.9C135.1 133.9 133.1 136.9 131.3 137C129.7 136.2 129.1 132.6 129.9 128.7C130.7 124.7 132.7 121.7 134.5 121.6C136.1 122.4 136.7 126 135.9 129.9Z" fill="#BA2744"/>
<path d="M134.3 142.5C134.2 143.2 133.1 142 133.1 142C133.1 142 133.1 143.6 132.8 145.1C132.6 146.1 132.4 147 132 147.4C131 148.4 129.9 148.9 129.9 148.9L129.3 154.3L129.2 155L127.9 153.1L125.5 149.8C125.5 149.8 129 139.7 129.2 139C129.3 138.4 131.8 138.1 132.6 138.6C133.4 139.2 134.4 141.7 134.3 142.5Z" fill="url(#paint39_linear_1_3)"/>
<path d="M132.7 145.1C132.5 146.1 132.3 147 131.9 147.4C130.9 148.4 129.8 148.9 129.8 148.9L129.2 154.3L127.8 153.2L129.1 148.9H127.7C127.8 148.9 131.8 147 132.7 145.1Z" fill="#ED4C76"/>
<path d="M135.3 129.9C134.5 133.6 132.8 136.3 131.5 136C130.1 135.7 129.7 132.5 130.4 128.9C131.2 125.2 132.9 122.5 134.2 122.8C135.6 123 136.1 126.2 135.3 129.9Z" fill="url(#paint40_linear_1_3)"/>
<path d="M106.8 145.1L106 158C106 158 101.5 163.9 101.2 180.8C100.8 197.7 100.6 212.3 99.1 214.4C96.4 218.4 66.8 209.4 67.5 204.5C67.7 203.2 71.5 185.2 74.5 170.9C76.5 161.3 78.2 153.4 78.2 153.4C78.2 153.4 82 140 93.2 139.3C96.5 139.1 99.1 139.5 101.1 140.2C105.6 141.9 106.8 145.1 106.8 145.1Z" fill="url(#paint41_linear_1_3)"/>
<path d="M83.9 190.2C83.9 190.2 88.8 192 94.2 191.9C94.2 191.9 93.3 204.7 92 205.5C90.6 206.4 83.3 205.5 82.2 202.9C81.1 200.4 83.9 190.2 83.9 190.2Z" fill="url(#paint42_linear_1_3)"/>
<path d="M101 140.2C101 140.2 98.3 141.6 97.5 152.4C96.9 161.7 86.7 174.8 74.4 170.8C76.4 161.2 78.1 153.3 78.1 153.3C78.1 153.3 81.9 139.9 93.1 139.2C96.5 139.1 99.1 139.5 101 140.2Z" fill="url(#paint43_linear_1_3)"/>
<path d="M118.5 125.4C118.5 125.4 121.3 121.2 120.2 117.7C119.6 115.7 117.3 115.9 117.3 115.9C117.3 115.9 113.8 107.5 104.4 112.3C97.5 115.9 100.7 121.6 87.2 128.8C73.7 135.9 73.9 136.2 71.6 142.8C69.3 149.4 74.4 160.4 82.8 160C91.2 159.6 92.7 153 94.8 146C96.9 139 99.1 137.4 102.4 136.8C105.7 136.2 107.3 134.6 108.3 131.9C108.3 131.9 106 130.3 106.7 128.2C107.4 126.1 110.4 125.3 109.9 129.4C109.9 129.4 115.3 127.1 116.7 121.3C116.7 121.2 118.1 123.1 118.5 125.4Z" fill="#BA2744"/>
<path d="M131.4 155.1C131.4 155.1 125.8 171.4 124.9 172.8C124.9 172.9 124.8 172.9 124.7 173C123.6 174.2 119.7 175.1 118 173.8C116.2 172.4 97.5 156 96.6 154.4C96 153.2 94.9 149.3 95.8 146.1C96.1 145.1 96.6 144.2 97.4 143.4C100.6 140.5 103.4 141.4 104.8 142.7C105.9 143.7 115.1 155.8 118.2 159.9C118.8 160.7 119.2 161.2 119.2 161.2L120.2 159.2L125 149.3L131.4 155.1Z" fill="url(#paint44_linear_1_3)"/>
<path d="M122.8 165.9L119.2 161.2L120.1 159.3L122.8 165.9Z" fill="white"/>
<path d="M124.8 173C123.7 174.2 119.8 175.1 118.1 173.8C116.3 172.4 97.6 156 96.7 154.4C96.1 153.2 95 149.3 95.9 146.1C96.5 148.6 98 152.7 101.9 155.2C107.9 159.1 109.8 160.2 112.9 165.5C115.9 170.5 119.3 173.7 124.8 173Z" fill="url(#paint45_linear_1_3)"/>
<path d="M181 167.9C181 167.9 190 167.3 191.5 162.5C193 157.6 190.4 154.2 189.1 147.7C187.9 141.2 185.7 138 183 140.4C183 140.4 179 135.5 175.2 139.7C171.3 143.8 171.4 149.1 166.4 156.2C163.1 160.9 167 167.5 176.1 167.3L181 167.9Z" fill="#BA2744"/>
<path d="M216.5 161C214.5 161.4 216.3 165.5 215.8 166.2C215.4 166.8 211.6 166.4 210.3 166.3C210 166.3 209.8 166.2 209.8 166.2C209.8 166.2 208.3 184.2 206.9 188.1L206.1 187.7L200.8 184.8C200.8 184.8 203.9 176.1 205.4 170.9C206.9 165.7 208.9 160.1 210.6 160.1C212.3 160.1 221.7 159.4 223 159C224.4 158.5 218.5 160.6 216.5 161Z" fill="url(#paint46_linear_1_3)"/>
<path d="M210.3 166.3C210 166.3 209.8 166.2 209.8 166.2C209.8 166.2 208.3 184.2 206.9 188.1L206.1 187.7L204.5 186.2C204.6 186.2 206.4 186.8 207.4 177.4C208.4 167.8 208.9 166.1 210.2 166.3C210.2 166.2 210.2 166.2 210.3 166.3Z" fill="#ED4C76"/>
<path d="M207.3 186.7C207.3 186.7 203.9 197.2 202.3 197.8C200.7 198.4 191 190.2 191 190.2L185.2 168.9C189.2 168.8 192.1 173.2 195.1 178.2C196.3 180.2 197.7 182.7 198.6 184.4C198.6 184.4 198.6 184.5 198.7 184.5C199.4 185.8 199.8 186.7 199.8 186.7V186.6L200.5 185.1L201.2 183.6L207.3 186.7Z" fill="url(#paint47_linear_1_3)"/>
<path d="M201.8 190.2L199.9 186.7L200.6 185.1L201.8 190.2Z" fill="url(#paint48_linear_1_3)"/>
<path d="M161.4 306.1L162.5 319.5H163.6V311.9C163.6 311.9 164.6 318.4 167 319.4C169.4 320.4 174.7 320.6 175.5 319.3C176.2 317.9 167.4 313.7 166 307.4C166 307.3 163.5 308.4 161.4 306.1Z" fill="#6149B7"/>
<path d="M163.3 309.1C163.3 309.1 164.6 309.3 165.8 308.7C165.8 308.7 167.4 313.6 171.1 315.9C173.4 317.4 166.1 320.2 163.3 309.1Z" fill="#FF78AF"/>
<path d="M187.5 306.1L188.6 319.5H189.7V311.9C189.7 311.9 190.7 318.4 193.1 319.4C195.5 320.4 200.8 320.6 201.6 319.3C202.3 317.9 193.4 313.1 192 306.7C192 306.7 189.6 308.4 187.5 306.1Z" fill="#6149B7"/>
<path d="M189.4 309.1C189.4 309.1 190.7 309.3 191.9 308.7C191.9 308.7 193.5 313.6 197.2 315.9C199.6 317.4 192.3 320.2 189.4 309.1Z" fill="#FF78AF"/>
<path d="M178.3 242.1C178.3 242.2 178.3 242.2 178.3 242.2C178.3 242.7 178.1 241.8 176.9 247.9C176.7 249.1 176.3 250.7 175.9 252.6C175 256.5 173.8 261.4 172.8 264.9C168.6 280.1 166 307.6 166 307.6C162.5 309.1 161.5 307.4 161.5 307.4C159.8 293.6 163.9 264.6 164.6 260.2C164.9 258.6 164.9 255.6 164.9 252.6C164.9 250 164.8 247.3 164.7 245.3C164.6 243.4 164.6 242.1 164.6 242.1H178.3Z" fill="url(#paint49_linear_1_3)"/>
<path d="M200.9 249.4C200.8 255 199.7 262.9 197.3 275.2C193.3 295.2 192.1 307 192.1 307C189.7 309.4 187.6 306.9 187.6 306.9C185.4 287.1 191.5 267 190.3 261C189.9 258.7 189.4 255.6 188.9 252.7C188.5 250.2 188.2 246.4 187.9 243.5C187.7 241 187.5 239.1 187.5 239.1C187.5 239.1 190.2 242.5 194 241.9C197.2 241.4 200.2 241.6 200.6 244.2C200.7 244.9 200.8 245.7 200.8 246.5C200.9 247.3 200.9 248.3 200.9 249.4Z" fill="url(#paint50_linear_1_3)"/>
<path d="M178.3 242.2C178.3 242.7 178.1 241.9 176.9 248C176.7 249.2 176.3 250.8 175.9 252.7H164.9C164.9 250.1 164.8 247.4 164.7 245.4L178.3 242.2Z" fill="#ED4C76"/>
<path d="M200.9 249.4L189 252.7C188.6 250.2 188.3 246.4 188 243.5C189.5 243 191.9 242.2 194.1 241.8L200.9 246.4C200.9 247.3 200.9 248.3 200.9 249.4Z" fill="#ED4C76"/>
<path d="M201.8 247.1C179.8 253.9 163.4 248.8 163.4 248.8C164.8 242.3 165.4 236.9 165.6 232.1C166.1 222.9 165.6 215.7 168 206.9L193 204.3H193.4C193.4 204.3 193.4 204.4 193.5 204.4C194.6 206.9 195.5 209.6 196.3 212.4C201.1 228.8 201.8 247.1 201.8 247.1Z" fill="url(#paint51_linear_1_3)"/>
<path d="M196.3 212.5C193.7 214.9 188.3 217.4 177 222.5C171.5 225 167.9 228.5 165.7 232.2C166.2 223 165.7 215.8 168.1 207L193.1 204.4C193.3 204.4 193.4 204.5 193.5 204.5C194.5 207 195.5 209.7 196.3 212.5Z" fill="url(#paint52_linear_1_3)"/>
<path d="M192 191.3C191 196.9 193.7 205.5 193.7 205.5C187.5 210.4 179.5 210.3 174.1 209.4C170.4 208.8 167.9 207.9 167.9 207.9C168.5 193.8 164 187.7 164 187.7L161.8 190.6L161.1 191.6L164.6 194.7L161.1 201.3C161.1 201.3 152.9 196.6 152 195.6C151.1 194.6 151.3 193.7 152 191.2C152.7 188.7 163.6 170.9 165.9 169.8C168.3 168.7 170.7 168.9 170.7 168.9C178.8 173.3 184 169.1 184 169.1C185.9 169 186.7 169 187.7 170C188.7 171 192.6 176.2 193.5 179.2C193.9 180.4 193.9 181.8 193.6 183.3C193.3 184.9 192.8 186.8 192.3 189C192.3 189.7 192.2 190.5 192 191.3Z" fill="url(#paint53_linear_1_3)"/>
<path d="M168 207.9C168.6 193.8 164.1 187.7 164.1 187.7L161.9 190.6L158.6 194.3L166.7 180.6C166.7 180.6 171.4 190.3 171.8 198.3C172.1 204.6 172.2 207.3 174.1 209.4C170.5 208.8 168 207.9 168 207.9Z" fill="url(#paint54_linear_1_3)"/>
<path d="M193.8 183.2C193.5 184.8 193 186.7 192.5 188.9C191.1 189.7 189.3 190.1 187.4 189.3C184.3 187.9 181.8 189.3 178.4 190C175 190.7 171.3 186.4 171.3 186.4C171.3 186.4 176.3 189 178.4 187.9C180.5 186.8 182.3 185.9 187.4 186.8C190.7 187.4 192.7 185 193.8 183.2Z" fill="url(#paint55_linear_1_3)"/>
<path d="M198.7 184.5L198.6 184.7" stroke="#2F2C93" stroke-width="0.2017" stroke-miterlimit="10"/>
<path d="M179 209.9C178.9 211.7 176.5 213.9 175.2 214C175.1 214 175.1 214 175 214C173.8 213.9 172.1 212.1 170.2 212C168.2 211.9 169.6 210.4 171.3 210.4C171.7 210.4 172.1 210.4 172.4 210.3C172.5 210.3 172.6 210.3 172.7 210.2C173.7 209.9 174.4 209.5 174.4 209.5L174.1 209.3L161.2 201.4L162.3 199.4L164.7 194.8C164.7 194.8 172.2 202.3 174 203.9C176 205.4 179.1 208.1 179 209.9Z" fill="url(#paint56_linear_1_3)"/>
<path d="M175 214C173.8 213.9 172.1 212.1 170.2 212C168.2 211.9 169.6 210.4 171.3 210.4C171.7 210.4 172.1 210.4 172.4 210.3C171.8 210.5 170.9 210.9 173.1 211.8C174.8 212.3 175.1 213.2 175 214Z" fill="url(#paint57_linear_1_3)"/>
<path d="M174.1 209.2L161.3 201.3L162.4 199.3L176.1 209.4L174.1 209.2Z" fill="#ED4C76"/>
<path d="M186 169C186 169 186.3 174.9 181 175.7C180.5 175.8 180 175.8 179.4 175.8C172.4 175.4 169.4 169 169.4 169C169.4 169 170.4 169.1 171.5 169.1C172.9 169.1 174.4 169 174.7 168.6C175.2 167.9 174.9 157.8 174.9 157.8C174.9 157.8 174 158.6 173.7 157.6C173.2 156.2 172 152.7 173.9 152.7C175.8 152.7 175.9 155.6 175.9 155.6C175.9 155.6 180.5 152 182.2 147.5C182.6 146.5 182.8 145.5 182.9 144.5C182.9 144.5 183.9 149.5 187.4 151.1C187.4 151.1 187.4 151.2 187.4 151.4C187.5 153 187.7 161.2 185 163.7C184.5 164.2 183.9 164.4 183.4 164.5C182.6 164.6 182 164.4 182 164.4C182 164.4 182 165.4 182.2 166.6C182.3 167.9 182.6 169.3 183.2 169.4C184.1 169.1 186 169 186 169Z" fill="url(#paint58_linear_1_3)"/>
<path d="M182 164C182 164 182 165 182.2 166.2C179 165 176.9 161 176.9 161C179.9 163.6 182.1 164.2 183.5 164.2C182.6 164.3 182 164 182 164Z" fill="#ED4C76"/>
<path d="M187.4 151.1C185.2 150.7 183.4 148.7 182.2 147.2C182.6 146.2 182.8 145.2 182.9 144.2C182.9 144.2 183.9 149.2 187.4 150.8C187.3 150.8 187.4 150.9 187.4 151.1Z" fill="#ED4C76"/>
<path d="M181 175.7C180.5 175.8 180 175.8 179.4 175.8C172.4 175.4 169.4 169 169.4 169C169.4 169 170.4 169.1 171.5 169.1C172.5 170.7 175.5 175.5 181 175.7Z" fill="#ED4C76"/>
<path d="M249.9 329.4C249.9 329.4 240.7 324.9 241.3 321.1C241.9 317.3 245.3 319.3 249.9 322.2C254.5 325.1 253.6 320 253.9 314.2C254.2 308.5 256.1 305.8 259.2 306.2C262.2 306.7 260 315.6 263.3 315.3C266.6 315 266.2 318 266 321.7C265.8 325.4 268.2 324.4 269.7 322.2C271.2 320 278 317.9 272.2 329.4H249.9Z" fill="url(#paint59_linear_1_3)"/>
<path d="M305.6 275.7C305.6 275.7 312.9 272.2 312.4 269.1C311.9 266.1 309.2 267.7 305.6 270C301.9 272.3 302.7 268.2 302.4 263.7C302.1 259.1 300.6 257 298.2 257.4C295.8 257.8 297.6 264.9 294.9 264.6C292.2 264.3 292.6 266.8 292.7 269.7C292.8 272.6 290.9 271.9 289.8 270.1C288.7 268.3 283.2 266.7 287.8 275.8H305.6V275.7Z" fill="url(#paint60_linear_1_3)"/>
<path d="M96.1 279.1C96.1 279.1 89.6 276 90 273.3C90.4 270.6 92.8 272.1 96.1 274.1C99.4 276.1 98.7 272.5 98.9 268.5C99.1 264.5 100.5 262.5 102.6 262.9C104.7 263.2 103.2 269.5 105.5 269.3C107.9 269.1 107.5 271.2 107.4 273.8C107.3 276.4 109 275.7 110 274.1C111 272.5 115.8 271.1 111.8 279.2H96.1V279.1Z" fill="url(#paint61_linear_1_3)"/>
<path d="M303.7 329.4C303.7 329.4 306.6 326.9 306.3 324.8C306 322.6 304 323.8 302.2 325.5C300.5 327.2 299.9 322.6 299.9 319.6C299.9 315.5 297.3 313.5 296.6 317.1C296 320.3 295 329.4 295 329.4H303.7Z" fill="url(#paint62_linear_1_3)"/>
</g>
<defs>
<linearGradient id="paint0_linear_1_3" x1="53.2694" y1="100.873" x2="20.5827" y2="109.347" gradientUnits="userSpaceOnUse">
<stop stop-color="#8151CC"/>
<stop offset="1" stop-color="#B557E3"/>
</linearGradient>
<linearGradient id="paint1_linear_1_3" x1="69.1003" y1="157.017" x2="40.0454" y2="176.992" gradientUnits="userSpaceOnUse">
<stop stop-color="#8151CC"/>
<stop offset="1" stop-color="#B557E3"/>
</linearGradient>
<linearGradient id="paint2_linear_1_3" x1="66.0611" y1="96.1679" x2="40.0328" y2="74.3768" gradientUnits="userSpaceOnUse">
<stop stop-color="#8151CC"/>
<stop offset="1" stop-color="#B557E3"/>
</linearGradient>
<linearGradient id="paint3_linear_1_3" x1="52.0645" y1="134.199" x2="15.746" y2="134.199" gradientUnits="userSpaceOnUse">
<stop stop-color="#8151CC"/>
<stop offset="1" stop-color="#B557E3"/>
</linearGradient>
<linearGradient id="paint4_linear_1_3" x1="71.7025" y1="170.922" x2="30.7041" y2="143.581" gradientUnits="userSpaceOnUse">
<stop stop-color="#9F42DD"/>
<stop offset="1" stop-color="#E774E0"/>
</linearGradient>
<linearGradient id="paint5_linear_1_3" x1="72.1891" y1="159.682" x2="45.9015" y2="103.798" gradientUnits="userSpaceOnUse">
<stop stop-color="#9F42DD"/>
<stop offset="1" stop-color="#E774E0"/>
</linearGradient>
<linearGradient id="paint6_linear_1_3" x1="74.7807" y1="115.614" x2="63.0792" y2="67.5974" gradientUnits="userSpaceOnUse">
<stop stop-color="#9F42DD"/>
<stop offset="1" stop-color="#E774E0"/>
</linearGradient>
<linearGradient id="paint7_linear_1_3" x1="73.1228" y1="193.251" x2="50.1233" y2="183.97" gradientUnits="userSpaceOnUse">
<stop stop-color="#9F42DD"/>
<stop offset="1" stop-color="#E774E0"/>
</linearGradient>
<linearGradient id="paint8_linear_1_3" x1="375.474" y1="100.873" x2="408.161" y2="109.347" gradientUnits="userSpaceOnUse">
<stop stop-color="#8151CC"/>
<stop offset="1" stop-color="#B557E3"/>
</linearGradient>
<linearGradient id="paint9_linear_1_3" x1="359.643" y1="157.017" x2="388.698" y2="176.992" gradientUnits="userSpaceOnUse">
<stop stop-color="#8151CC"/>
<stop offset="1" stop-color="#B557E3"/>
</linearGradient>
<linearGradient id="paint10_linear_1_3" x1="362.682" y1="96.1679" x2="388.711" y2="74.3768" gradientUnits="userSpaceOnUse">
<stop stop-color="#8151CC"/>
<stop offset="1" stop-color="#B557E3"/>
</linearGradient>
<linearGradient id="paint11_linear_1_3" x1="376.679" y1="134.199" x2="412.997" y2="134.199" gradientUnits="userSpaceOnUse">
<stop stop-color="#8151CC"/>
<stop offset="1" stop-color="#B557E3"/>
</linearGradient>
<linearGradient id="paint12_linear_1_3" x1="357.041" y1="170.922" x2="398.039" y2="143.581" gradientUnits="userSpaceOnUse">
<stop stop-color="#9F42DD"/>
<stop offset="1" stop-color="#E774E0"/>
</linearGradient>
<linearGradient id="paint13_linear_1_3" x1="356.554" y1="159.682" x2="382.842" y2="103.798" gradientUnits="userSpaceOnUse">
<stop stop-color="#9F42DD"/>
<stop offset="1" stop-color="#E774E0"/>
</linearGradient>
<linearGradient id="paint14_linear_1_3" x1="353.963" y1="115.614" x2="365.664" y2="67.5974" gradientUnits="userSpaceOnUse">
<stop stop-color="#9F42DD"/>
<stop offset="1" stop-color="#E774E0"/>
</linearGradient>
<linearGradient id="paint15_linear_1_3" x1="355.621" y1="193.251" x2="378.62" y2="183.97" gradientUnits="userSpaceOnUse">
<stop stop-color="#9F42DD"/>
<stop offset="1" stop-color="#E774E0"/>
</linearGradient>
<linearGradient id="paint16_linear_1_3" x1="186.307" y1="182.787" x2="255.312" y2="49.0135" gradientUnits="userSpaceOnUse">
<stop stop-color="#6656CC"/>
<stop offset="1" stop-color="#7472D6"/>
</linearGradient>
<linearGradient id="paint17_linear_1_3" x1="208.258" y1="214.287" x2="219.436" y2="214.287" gradientUnits="userSpaceOnUse">
<stop stop-color="#6656CC"/>
<stop offset="1" stop-color="#7472D6"/>
</linearGradient>
<linearGradient id="paint18_linear_1_3" x1="213.315" y1="211.068" x2="213.315" y2="252.147" gradientUnits="userSpaceOnUse">
<stop stop-color="#A6AEB2"/>
<stop offset="1" stop-color="#DBDCDD"/>
</linearGradient>
<linearGradient id="paint19_linear_1_3" x1="347.091" y1="160.005" x2="392.654" y2="145.791" gradientUnits="userSpaceOnUse">
<stop stop-color="#F4BA38"/>
<stop offset="1" stop-color="#FFD349"/>
</linearGradient>
<linearGradient id="paint20_linear_1_3" x1="347.527" y1="148.867" x2="330.407" y2="127.109" gradientUnits="userSpaceOnUse">
<stop stop-color="#E85B7D"/>
<stop offset="1" stop-color="#FF78AF"/>
</linearGradient>
<linearGradient id="paint21_linear_1_3" x1="328.048" y1="122.486" x2="333.066" y2="113.252" gradientUnits="userSpaceOnUse">
<stop stop-color="#EF6F6F"/>
<stop offset="1" stop-color="#EF6F6F" stop-opacity="0"/>
</linearGradient>
<linearGradient id="paint22_linear_1_3" x1="346.008" y1="168.966" x2="344.19" y2="271.001" gradientUnits="userSpaceOnUse">
<stop stop-color="#7C45CC"/>
<stop offset="1" stop-color="#AB6FD6"/>
</linearGradient>
<linearGradient id="paint23_linear_1_3" x1="332.665" y1="269.53" x2="402.819" y2="140.446" gradientUnits="userSpaceOnUse">
<stop stop-color="#6D5BB8"/>
<stop offset="1" stop-color="#604AB7" stop-opacity="0"/>
</linearGradient>
<linearGradient id="paint24_linear_1_3" x1="340.796" y1="216.377" x2="343.327" y2="211.72" gradientUnits="userSpaceOnUse">
<stop stop-color="#F99030"/>
<stop offset="1" stop-color="#F99030" stop-opacity="0"/>
</linearGradient>
<linearGradient id="paint25_linear_1_3" x1="320.771" y1="137.184" x2="313.104" y2="124.167" gradientUnits="userSpaceOnUse">
<stop stop-color="#AFE3C0"/>
<stop offset="1" stop-color="#C7ECC5"/>
</linearGradient>
<linearGradient id="paint26_linear_1_3" x1="309.466" y1="152.453" x2="329.9" y2="114.854" gradientUnits="userSpaceOnUse">
<stop stop-color="#E85B7D"/>
<stop offset="1" stop-color="#FF78AF"/>
</linearGradient>
<linearGradient id="paint27_linear_1_3" x1="343.371" y1="202.651" x2="336.237" y2="150.933" gradientUnits="userSpaceOnUse">
<stop stop-color="#F4BA38"/>
<stop offset="1" stop-color="#FFD349"/>
</linearGradient>
<linearGradient id="paint28_linear_1_3" x1="323.572" y1="138.237" x2="313.447" y2="174.259" gradientUnits="userSpaceOnUse">
<stop stop-color="#FF911E"/>
<stop offset="1" stop-color="#FE931E" stop-opacity="0"/>
</linearGradient>
<linearGradient id="paint29_linear_1_3" x1="331.047" y1="195.364" x2="318.563" y2="127.952" gradientUnits="userSpaceOnUse">
<stop stop-color="#FF911E"/>
<stop offset="1" stop-color="#FE931E" stop-opacity="0"/>
</linearGradient>
<linearGradient id="paint30_linear_1_3" x1="114.222" y1="169.916" x2="118.794" y2="169.916" gradientUnits="userSpaceOnUse">
<stop stop-color="#F99393"/>
<stop offset="1" stop-color="#FFB0B4"/>
</linearGradient>
<linearGradient id="paint31_linear_1_3" x1="93.748" y1="132.038" x2="118.794" y2="132.038" gradientUnits="userSpaceOnUse">
<stop stop-color="#E85B7D"/>
<stop offset="1" stop-color="#FF78AF"/>
</linearGradient>
<linearGradient id="paint32_linear_1_3" x1="117.545" y1="117.815" x2="115.519" y2="136.783" gradientUnits="userSpaceOnUse">
<stop stop-color="#EF6F6F"/>
<stop offset="1" stop-color="#EF6F6F" stop-opacity="0"/>
</linearGradient>
<linearGradient id="paint33_linear_1_3" x1="92.74" y1="200.42" x2="136.693" y2="265.244" gradientUnits="userSpaceOnUse">
<stop stop-color="#7C45CC"/>
<stop offset="1" stop-color="#AB6FD6"/>
</linearGradient>
<linearGradient id="paint34_linear_1_3" x1="123.786" y1="269.508" x2="131.346" y2="269.508" gradientUnits="userSpaceOnUse">
<stop stop-color="#E85B7D"/>
<stop offset="1" stop-color="#FF78AF"/>
</linearGradient>
<linearGradient id="paint35_linear_1_3" x1="99.0501" y1="207.436" x2="134.896" y2="284.367" gradientUnits="userSpaceOnUse">
<stop stop-color="#6D5BB8"/>
<stop offset="1" stop-color="#604AB7" stop-opacity="0"/>
</linearGradient>
<linearGradient id="paint36_linear_1_3" x1="61.5826" y1="236.582" x2="90.515" y2="236.582" gradientUnits="userSpaceOnUse">
<stop stop-color="#7C45CC"/>
<stop offset="1" stop-color="#AB6FD6"/>
</linearGradient>
<linearGradient id="paint37_linear_1_3" x1="60.4482" y1="268.501" x2="67.1025" y2="268.501" gradientUnits="userSpaceOnUse">
<stop stop-color="#E85B7D"/>
<stop offset="1" stop-color="#FF78AF"/>
</linearGradient>
<linearGradient id="paint38_linear_1_3" x1="80.1246" y1="203.625" x2="61.4528" y2="285.746" gradientUnits="userSpaceOnUse">
<stop stop-color="#6D5BB8"/>
<stop offset="1" stop-color="#604AB7" stop-opacity="0"/>
</linearGradient>
<linearGradient id="paint39_linear_1_3" x1="125.439" y1="146.704" x2="134.274" y2="146.704" gradientUnits="userSpaceOnUse">
<stop stop-color="#E85B7D"/>
<stop offset="1" stop-color="#FF78AF"/>
</linearGradient>
<linearGradient id="paint40_linear_1_3" x1="122.707" y1="145.493" x2="134.493" y2="126.71" gradientUnits="userSpaceOnUse">
<stop stop-color="#AFE3C0"/>
<stop offset="1" stop-color="#C7ECC5"/>
</linearGradient>
<linearGradient id="paint41_linear_1_3" x1="67.4612" y1="177.328" x2="106.804" y2="177.328" gradientUnits="userSpaceOnUse">
<stop stop-color="#F4BA38"/>
<stop offset="1" stop-color="#FFD349"/>
</linearGradient>
<linearGradient id="paint42_linear_1_3" x1="84.0675" y1="213.346" x2="97.4364" y2="162.441" gradientUnits="userSpaceOnUse">
<stop stop-color="#FF911E"/>
<stop offset="1" stop-color="#FE931E" stop-opacity="0"/>
</linearGradient>
<linearGradient id="paint43_linear_1_3" x1="83.2624" y1="138.329" x2="96.0308" y2="187.439" gradientUnits="userSpaceOnUse">
<stop stop-color="#FF911E"/>
<stop offset="1" stop-color="#FE931E" stop-opacity="0"/>
</linearGradient>
<linearGradient id="paint44_linear_1_3" x1="95.5274" y1="157.976" x2="131.439" y2="157.976" gradientUnits="userSpaceOnUse">
<stop stop-color="#F4BA38"/>
<stop offset="1" stop-color="#FFD349"/>
</linearGradient>
<linearGradient id="paint45_linear_1_3" x1="103.832" y1="171.07" x2="119.301" y2="143.632" gradientUnits="userSpaceOnUse">
<stop stop-color="#FF911E"/>
<stop offset="1" stop-color="#FE931E" stop-opacity="0"/>
</linearGradient>
<linearGradient id="paint46_linear_1_3" x1="200.727" y1="173.444" x2="223.196" y2="173.444" gradientUnits="userSpaceOnUse">
<stop stop-color="#E85B7D"/>
<stop offset="1" stop-color="#FF78AF"/>
</linearGradient>
<linearGradient id="paint47_linear_1_3" x1="185.192" y1="183.348" x2="207.315" y2="183.348" gradientUnits="userSpaceOnUse">
<stop stop-color="#A768DD"/>
<stop offset="1" stop-color="#E290D4"/>
</linearGradient>
<linearGradient id="paint48_linear_1_3" x1="199.879" y1="187.667" x2="201.841" y2="187.667" gradientUnits="userSpaceOnUse">
<stop stop-color="#9066DD"/>
<stop offset="1" stop-color="#8543DD" stop-opacity="0"/>
</linearGradient>
<linearGradient id="paint49_linear_1_3" x1="170.537" y1="240.616" x2="169.044" y2="293.619" gradientUnits="userSpaceOnUse">
<stop stop-color="#E85B7D"/>
<stop offset="1" stop-color="#FF78AF"/>
</linearGradient>
<linearGradient id="paint50_linear_1_3" x1="194.276" y1="241.285" x2="192.783" y2="294.288" gradientUnits="userSpaceOnUse">
<stop stop-color="#E85B7D"/>
<stop offset="1" stop-color="#FF78AF"/>
</linearGradient>
<linearGradient id="paint51_linear_1_3" x1="160.327" y1="201.495" x2="197.649" y2="253.249" gradientUnits="userSpaceOnUse">
<stop stop-color="#7C45CC"/>
<stop offset="1" stop-color="#AB6FD6"/>
</linearGradient>
<linearGradient id="paint52_linear_1_3" x1="171.821" y1="193.59" x2="186.252" y2="238.875" gradientUnits="userSpaceOnUse">
<stop stop-color="#6D5BB8"/>
<stop offset="1" stop-color="#604AB7" stop-opacity="0"/>
</linearGradient>
<linearGradient id="paint53_linear_1_3" x1="175.232" y1="210.914" x2="172.246" y2="181.8" gradientUnits="userSpaceOnUse">
<stop stop-color="#A768DD"/>
<stop offset="1" stop-color="#E290D4"/>
</linearGradient>
<linearGradient id="paint54_linear_1_3" x1="158.672" y1="195.02" x2="174.157" y2="195.02" gradientUnits="userSpaceOnUse">
<stop stop-color="#9066DD"/>
<stop offset="1" stop-color="#8543DD" stop-opacity="0"/>
</linearGradient>
<linearGradient id="paint55_linear_1_3" x1="182.599" y1="197.359" x2="182.599" y2="173.55" gradientUnits="userSpaceOnUse">
<stop stop-color="#9066DD"/>
<stop offset="1" stop-color="#8543DD" stop-opacity="0"/>
</linearGradient>
<linearGradient id="paint56_linear_1_3" x1="161.284" y1="204.328" x2="178.976" y2="204.328" gradientUnits="userSpaceOnUse">
<stop stop-color="#E85B7D"/>
<stop offset="1" stop-color="#FF78AF"/>
</linearGradient>
<linearGradient id="paint57_linear_1_3" x1="169.258" y1="212.102" x2="175.034" y2="212.102" gradientUnits="userSpaceOnUse">
<stop stop-color="#EF6F6F"/>
<stop offset="1" stop-color="#EF6F6F" stop-opacity="0"/>
</linearGradient>
<linearGradient id="paint58_linear_1_3" x1="173.097" y1="178.057" x2="184.543" y2="149.195" gradientUnits="userSpaceOnUse">
<stop stop-color="#E85B7D"/>
<stop offset="1" stop-color="#FF78AF"/>
</linearGradient>
<linearGradient id="paint59_linear_1_3" x1="257.892" y1="333.04" x2="257.892" y2="312.028" gradientUnits="userSpaceOnUse">
<stop stop-color="#9F42DD"/>
<stop offset="1" stop-color="#E774E0"/>
</linearGradient>
<linearGradient id="paint60_linear_1_3" x1="299.25" y1="278.647" x2="299.25" y2="261.945" gradientUnits="userSpaceOnUse">
<stop stop-color="#9F42DD"/>
<stop offset="1" stop-color="#E774E0"/>
</linearGradient>
<linearGradient id="paint61_linear_1_3" x1="101.737" y1="281.719" x2="101.737" y2="266.893" gradientUnits="userSpaceOnUse">
<stop stop-color="#9F42DD"/>
<stop offset="1" stop-color="#E774E0"/>
</linearGradient>
<linearGradient id="paint62_linear_1_3" x1="300.654" y1="331.618" x2="300.654" y2="318.715" gradientUnits="userSpaceOnUse">
<stop stop-color="#9F42DD"/>
<stop offset="1" stop-color="#E774E0"/>
</linearGradient>
<clipPath id="clip0_1_3">
<rect width="428.7" height="339.9" fill="white"/>
</clipPath>
</defs>
</svg>
