<svg width="784" height="159" viewBox="0 0 784 159" fill="none" xmlns="http://www.w3.org/2000/svg">
<g clip-path="url(#clip0_1_3)">
<path d="M196.6 58.9C198 7 127.9 -14.7 104.1 35.1C97.1 28.3 87.4 24.5 77.1 25.3C63.3 26.4 51.9 35.6 47 48C-1.50005 41.6 -13.4 115 46.9 115C60.3 115 81.3 115 103.9 115V129.9H95.9L111.9 157.5L127.9 129.9H119.9V115V97.3H111.9L127.9 69.7L143.9 97.3H135.9V115C171.5 115 204.5 115 212.5 115C249.1 115 248.3 52.3 196.6 58.9Z" fill="#FF695F"/>
</g>
<path d="M299.88 58.856C306.024 58.856 310.952 60.904 314.664 65C318.376 69.032 320.232 74.6 320.232 81.704V113H303.912V83.912C303.912 80.328 302.984 77.544 301.128 75.56C299.272 73.576 296.776 72.584 293.64 72.584C290.504 72.584 288.008 73.576 286.152 75.56C284.296 77.544 283.368 80.328 283.368 83.912V113H266.952V41.96H283.368V66.632C285.032 64.264 287.304 62.376 290.184 60.968C293.064 59.56 296.296 58.856 299.88 58.856ZM356.024 113.768C350.776 113.768 346.04 112.648 341.816 110.408C337.656 108.168 334.36 104.968 331.928 100.808C329.56 96.648 328.376 91.784 328.376 86.216C328.376 80.712 329.592 75.88 332.023 71.72C334.456 67.496 337.784 64.264 342.008 62.024C346.232 59.784 350.968 58.664 356.216 58.664C361.464 58.664 366.2 59.784 370.424 62.024C374.648 64.264 377.976 67.496 380.408 71.72C382.84 75.88 384.056 80.712 384.056 86.216C384.056 91.72 382.808 96.584 380.312 100.808C377.88 104.968 374.52 108.168 370.232 110.408C366.008 112.648 361.272 113.768 356.024 113.768ZM356.024 99.56C359.16 99.56 361.816 98.408 363.992 96.104C366.232 93.8 367.352 90.504 367.352 86.216C367.352 81.928 366.264 78.632 364.088 76.328C361.976 74.024 359.352 72.872 356.216 72.872C353.016 72.872 350.36 74.024 348.248 76.328C346.136 78.568 345.08 81.864 345.08 86.216C345.08 90.504 346.104 93.8 348.152 96.104C350.264 98.408 352.888 99.56 356.024 99.56ZM414.557 113.768C409.885 113.768 405.725 112.968 402.077 111.368C398.429 109.768 395.549 107.592 393.437 104.84C391.325 102.024 390.141 98.888 389.885 95.432H406.109C406.301 97.288 407.165 98.792 408.701 99.944C410.237 101.096 412.125 101.672 414.365 101.672C416.413 101.672 417.981 101.288 419.069 100.52C420.221 99.688 420.797 98.632 420.797 97.352C420.797 95.816 419.997 94.696 418.397 93.992C416.797 93.224 414.205 92.392 410.621 91.496C406.781 90.6 403.581 89.672 401.021 88.712C398.461 87.688 396.253 86.12 394.397 84.008C392.541 81.832 391.613 78.92 391.613 75.272C391.613 72.2 392.445 69.416 394.109 66.92C395.837 64.36 398.333 62.344 401.597 60.872C404.925 59.4 408.861 58.664 413.405 58.664C420.125 58.664 425.405 60.328 429.245 63.656C433.149 66.984 435.389 71.4 435.965 76.904H420.797C420.541 75.048 419.709 73.576 418.301 72.488C416.957 71.4 415.165 70.856 412.925 70.856C411.005 70.856 409.533 71.24 408.509 72.008C407.485 72.712 406.973 73.704 406.973 74.984C406.973 76.52 407.773 77.672 409.373 78.44C411.037 79.208 413.597 79.976 417.053 80.744C421.021 81.768 424.253 82.792 426.749 83.816C429.245 84.776 431.421 86.376 433.277 88.616C435.197 90.792 436.189 93.736 436.253 97.448C436.253 100.584 435.357 103.4 433.565 105.896C431.837 108.328 429.309 110.248 425.981 111.656C422.717 113.064 418.909 113.768 414.557 113.768ZM476.152 99.08V113H467.8C461.848 113 457.208 111.56 453.88 108.68C450.552 105.736 448.888 100.968 448.888 94.376V73.064H442.36V59.432H448.888V46.376H465.304V59.432H476.056V73.064H465.304V94.568C465.304 96.168 465.688 97.32 466.456 98.024C467.224 98.728 468.504 99.08 470.296 99.08H476.152ZM493.552 53.864C490.672 53.864 488.304 53.032 486.448 51.368C484.656 49.64 483.76 47.528 483.76 45.032C483.76 42.472 484.656 40.36 486.448 38.696C488.304 36.968 490.672 36.104 493.552 36.104C496.368 36.104 498.672 36.968 500.464 38.696C502.32 40.36 503.248 42.472 503.248 45.032C503.248 47.528 502.32 49.64 500.464 51.368C498.672 53.032 496.368 53.864 493.552 53.864ZM501.712 59.432V113H485.296V59.432H501.712ZM546.248 58.856C552.52 58.856 557.512 60.904 561.224 65C565 69.032 566.888 74.6 566.888 81.704V113H550.568V83.912C550.568 80.328 549.64 77.544 547.784 75.56C545.928 73.576 543.432 72.584 540.296 72.584C537.16 72.584 534.664 73.576 532.808 75.56C530.952 77.544 530.024 80.328 530.024 83.912V113H513.608V59.432H530.024V66.536C531.688 64.168 533.928 62.312 536.744 60.968C539.56 59.56 542.728 58.856 546.248 58.856ZM598.648 58.664C602.424 58.664 605.72 59.432 608.536 60.968C611.416 62.504 613.624 64.52 615.16 67.016V59.432H631.576V112.904C631.576 117.832 630.584 122.28 628.6 126.248C626.68 130.28 623.704 133.48 619.672 135.848C615.704 138.216 610.744 139.4 604.792 139.4C596.856 139.4 590.424 137.512 585.496 133.736C580.568 130.024 577.752 124.968 577.048 118.568H593.272C593.784 120.616 595 122.216 596.92 123.368C598.84 124.584 601.208 125.192 604.024 125.192C607.416 125.192 610.104 124.2 612.088 122.216C614.136 120.296 615.16 117.192 615.16 112.904V105.32C613.56 107.816 611.352 109.864 608.536 111.464C605.72 113 602.424 113.768 598.648 113.768C594.232 113.768 590.232 112.648 586.648 110.408C583.064 108.104 580.216 104.872 578.104 100.712C576.056 96.488 575.032 91.624 575.032 86.12C575.032 80.616 576.056 75.784 578.104 71.624C580.216 67.464 583.064 64.264 586.648 62.024C590.232 59.784 594.232 58.664 598.648 58.664ZM615.16 86.216C615.16 82.12 614.008 78.888 611.704 76.52C609.464 74.152 606.712 72.968 603.448 72.968C600.184 72.968 597.4 74.152 595.096 76.52C592.856 78.824 591.736 82.024 591.736 86.12C591.736 90.216 592.856 93.48 595.096 95.912C597.4 98.28 600.184 99.464 603.448 99.464C606.712 99.464 609.464 98.28 611.704 95.912C614.008 93.544 615.16 90.312 615.16 86.216ZM651.132 113.768C648.252 113.768 645.884 112.936 644.028 111.272C642.236 109.544 641.34 107.432 641.34 104.936C641.34 102.376 642.236 100.232 644.028 98.504C645.884 96.776 648.252 95.912 651.132 95.912C653.948 95.912 656.252 96.776 658.044 98.504C659.9 100.232 660.828 102.376 660.828 104.936C660.828 107.432 659.9 109.544 658.044 111.272C656.252 112.936 653.948 113.768 651.132 113.768ZM667.282 86.216C667.282 80.648 668.402 75.784 670.642 71.624C672.946 67.464 676.114 64.264 680.146 62.024C684.242 59.784 688.914 58.664 694.162 58.664C700.882 58.664 706.482 60.424 710.962 63.944C715.506 67.464 718.482 72.424 719.89 78.824H702.418C700.946 74.728 698.098 72.68 693.874 72.68C690.866 72.68 688.466 73.864 686.674 76.232C684.882 78.536 683.986 81.864 683.986 86.216C683.986 90.568 684.882 93.928 686.674 96.296C688.466 98.6 690.866 99.752 693.874 99.752C698.098 99.752 700.946 97.704 702.418 93.608H719.89C718.482 99.88 715.506 104.808 710.962 108.392C706.418 111.976 700.818 113.768 694.162 113.768C688.914 113.768 684.242 112.648 680.146 110.408C676.114 108.168 672.946 104.968 670.642 100.808C668.402 96.648 667.282 91.784 667.282 86.216ZM753.055 113.768C747.807 113.768 743.071 112.648 738.847 110.408C734.687 108.168 731.391 104.968 728.959 100.808C726.591 96.648 725.407 91.784 725.407 86.216C725.407 80.712 726.623 75.88 729.055 71.72C731.487 67.496 734.815 64.264 739.039 62.024C743.263 59.784 747.999 58.664 753.247 58.664C758.495 58.664 763.231 59.784 767.455 62.024C771.679 64.264 775.007 67.496 777.439 71.72C779.871 75.88 781.087 80.712 781.087 86.216C781.087 91.72 779.839 96.584 777.343 100.808C774.911 104.968 771.551 108.168 767.263 110.408C763.039 112.648 758.303 113.768 753.055 113.768ZM753.055 99.56C756.191 99.56 758.847 98.408 761.023 96.104C763.263 93.8 764.383 90.504 764.383 86.216C764.383 81.928 763.295 78.632 761.119 76.328C759.007 74.024 756.383 72.872 753.247 72.872C750.047 72.872 747.391 74.024 745.279 76.328C743.167 78.568 742.111 81.864 742.111 86.216C742.111 90.504 743.135 93.8 745.183 96.104C747.295 98.408 749.919 99.56 753.055 99.56Z" fill="#6D42FF"/>
<defs>
<clipPath id="clip0_1_3">
<rect width="231.9" height="150.5" fill="white" transform="translate(6 7)"/>
</clipPath>
</defs>
</svg>
